<?xml version="1.0"?>
<svg xmlns="http://www.w3.org/2000/svg" version="1.2" baseProfile="tiny" width="800" height="1018" viewBox="0 0 800 1018" stroke-linecap="round" stroke-linejoin="round">
<g id="LEMANAK PERIMETER">
<path d="M 703.57 986.1 703.44 977.23 707.01 970.74 711.37 967.42 716.53 965.03 720.05 964.25 725.72 959.91 731.51 956.59 738.39 949.53 743.71 946.04 749.03 943.98 752.04 937.6 759.04 932.68 763.93 931.39 765.66 924.47 769.1 918.69 771.13 914.81 774.74 909.48 778.65 905.21 778.65 905.21 778.65 905.21 787.39 912.61 789.88 914.93 792.04 917.57 793.89 920.4 795.46 923.43 796.6 926.58 799 937.18 798.25 936.84 795.67 939.39 795.21 941.09 793.5 943.28 792.18 947.38 792.6 950.58 792.35 953.33 790.26 955.22 787.78 959.59 788.45 962.88 787.51 966.33 784.12 967.28 784.88 970.55 784.38 972.75 777.76 974.79 779.32 976.89 778.68 984.96 776.13 988.02 777.78 990.35 778.1 992.58 776.33 993.63 773.99 992.02 769.69 990.95 765.91 990.42 762.8 989.85 759.24 990.27 757.17 992.23 755.76 995.3 752.56 999.29 750.74 999.79 748.85 999.1 747.37 996.81 744.78 998.84 742.83 998.22 740.32 999.25 736.01 998.15 732.56 997.86 728.67 997.04 724.15 996.54 721.29 994.46 718.68 990.93 716.52 989.54 716.42 984.99 720.48 985.49 722.82 985.06 723.15 982.7 724.39 980.59 726.05 977.49 725.12 974.76 722.9 970.31 722.89 970.3 720.27 969.3 719.17 968.66 717.16 971.05 716.04 972.54 717.47 974.37 718.32 976.49 715.91 980.27 715.45 983.49 713.98 984.9 712.94 984.31 711.8 981.96 711.79 981.97 711.78 981.95 708 983.58 705.28 986.28 703.59 986.1 703.57 986.1 Z"/>
<path d="M 708.16 873.46 710.23 875.59 705.39 884.19 703.14 888.53 702.49 890.55 700.21 893.69 694.71 895.02 688.95 893.59 688.35 890.49 683.78 890.55 681.59 884.36 688.83 881.38 695.27 878.92 702.38 874.16 706.35 871.09 708.16 873.46 Z"/>
<path d="M 527.06 830.31 524.86 834.92 519.18 837.59 516.03 842.32 517.98 845.44 529.67 848.79 533.02 852.11 538.05 848.09 539.94 848.84 539.11 857.08 539.73 860.67 548.71 866.81 555.18 865.98 560.55 864.58 569.23 863.23 572.64 863.68 579.79 867.11 581.82 866.01 585.44 866.06 590.08 867.22 594.27 872.46 591.79 880.47 592.92 883.67 591.42 884.89 589.15 886.73 589.85 890.31 579.13 892.47 573.17 892.92 566.9 897.32 562.68 897.87 562.8 895.09 555.32 896.75 554.97 903.69 554.06 901.53 549.57 900.71 548.79 894.42 549.37 891.94 551.57 888.05 546.04 880.1 549.88 877.11 545.87 875.31 544.53 872.42 542.31 869.35 539.87 871.91 536.42 872.06 533.51 873.25 534.13 876.74 534.76 881.31 531.4 877.78 528.62 876.62 527.53 873.91 523.71 873.06 520.06 876.43 515.94 878.66 514.09 875.18 506.62 872.47 500.64 870.82 495.21 874.66 492.27 869.9 490.24 868.26 488.44 865.81 484.59 864.22 483.52 865.76 485.26 867.92 487.33 869.57 486.02 872.88 488.48 876.06 489.16 878.93 483.3 877.75 480.62 874.99 475.08 873.38 472.59 867.49 468.98 865.78 465.84 869.19 461.23 869.23 459.56 865.03 454.3 863.61 450.65 859.47 446.33 858.35 447.91 855.46 443.07 852.88 439.58 854.28 435.04 850.51 430.67 850.58 428.91 845.73 423.24 848.39 418.5 849.33 419.38 847.15 418.27 841.36 414.35 839.79 411.99 841.11 405.81 837.94 402.6 834.07 406.99 830.36 403.27 826.88 404.45 825.62 415.44 832.18 419.22 828.59 425.38 831.82 433.33 836.39 439.02 836.6 447.83 836.32 452.75 841.01 467.26 834.52 477.24 832.97 486.66 831.79 493.62 832.15 497.6 832.37 499.42 832.19 503.02 832.72 506.95 831.05 524.23 830.43 526 830.95 527.06 830.31 Z"/>
<path d="M 581.85 835.56 585.54 832.32 597.35 821.16 603.84 815.09 612.87 804.34 617.14 799.99 625.59 789.65 626.69 790.78 634.55 798.75 644.1 808.45 656.78 821.59 657.18 822.01 663.57 828.39 668.45 832 676.99 837.18 660.92 847.9 655.17 846.17 650.41 845.78 647.73 844.94 642.77 843.95 635.38 846.76 633.18 849.04 635.66 852.16 639.24 856.84 643.19 858.21 647.7 859.81 652.61 861.97 656.02 866.88 657.55 871.88 656.89 872.79 654.09 877.1 648.17 879.67 644.88 880.19 641.19 874.44 640.76 872.21 640.09 867.02 636.51 863.98 632.52 861.24 624.2 860.27 614.97 856.22 609.58 849.08 606.55 850.89 603.65 849.8 602.87 842.81 597.47 841.32 595.38 839.65 591.47 839.47 586.67 836.88 581.85 835.56 Z"/>
<path d="M 353.92 781.01 357.74 787.18 362.11 794.18 367.02 804.88 378.36 809.97 381.14 809.89 381.39 813.72 378.33 817.83 377.62 821.58 378.59 823.71 381.87 826.8 382.22 829.68 378.63 832.03 379.88 836.18 378.81 839.25 372.01 838.29 369.31 840.09 372.45 840.72 374.33 841.71 373.63 843.05 367.61 844.6 366.86 845.01 364.75 843.77 363.67 844.19 359.95 840.54 358.19 836.71 355.19 832.83 351.01 832.13 350.95 830.6 355.47 829.75 353.3 827.03 350 826.23 346.53 822.43 341.86 820.83 343.87 818.98 340.21 816.48 336.28 818.7 334.68 818.94 333.49 814.5 331.13 812.59 329.12 810.2 326.51 812.95 324.37 812.99 321.85 809.4 319.61 811.21 317.41 811.41 315.15 807.49 311.18 803.18 307.93 802.37 299.01 802.68 293.17 802.53 289.32 804.58 284.06 803.37 279 803.1 272.09 796.36 264.99 788.7 264.47 789.45 261.68 786.32 264.4 777.69 265.22 775.77 268.4 776.15 273.55 776.49 282.93 778.36 285.93 778.29 289.09 778.93 296.6 781.16 305.6 780.97 313.9 778.94 315.81 776.79 318.3 776.91 323.24 774.57 326.39 777.55 328.64 778.63 331.14 779.38 334.69 778.81 336.86 780.19 337.14 783.46 339.09 783.91 342.98 782.82 345.39 782.92 353.77 781.59 353.92 781.01 Z"/>
<path d="M 545.99 721.23 546.38 723.12 546.56 726.26 548.06 727.25 552.24 729.83 556.49 731.45 559.11 733.8 559.77 736.05 561.27 737.31 562.55 740.49 562.77 743.93 561.58 746.34 560.87 747.45 554.36 749.66 549.74 751.18 542.2 753.67 540.36 754.29 537.41 749.55 534.7 745.28 530.03 738.24 525.54 729.94 522.71 727 521.4 724.93 517.93 719.92 514.59 714.82 515.83 713.78 520.93 709.5 523.83 707.16 528.83 703.01 529.82 702.09 531.35 705.03 531.66 706.87 532.77 709.42 534.28 712.46 535.83 714.86 536.55 717.3 537.12 717.99 537.69 718.16 539.47 718.51 540.37 719.69 542.99 720.85 545.99 721.23 Z"/>
<path d="M 529.82 702.09 528.83 703.01 523.83 707.16 520.93 709.5 515.83 713.78 514.59 714.82 517.93 719.92 521.4 724.93 522.71 727 525.54 729.94 530.03 738.24 534.7 745.28 533.5 744.75 531.49 744.77 527.18 745.68 526.11 750.03 526.15 752.93 526.5 754.25 528.54 757.88 530.53 756.83 532.99 753.63 536.35 750.97 537.41 749.55 540.36 754.29 542.2 753.67 549.74 751.18 554.36 749.66 560.87 747.45 560.02 748.79 556.7 751.78 556.93 755.39 551.13 758.87 551.84 764.34 549.67 766.38 555.76 769.89 558.14 771.4 558.89 777.06 556.64 777.98 556.26 784.64 549.13 785.72 546.78 789.31 542.79 792.61 540.41 793.56 536.93 793.27 533.57 792.7 529.25 793.07 530.52 794.26 529.74 795.4 532.57 797.92 533.93 796.03 535.49 796.76 535.15 800.3 536.55 799.45 538.39 801.31 536.42 803.22 536.48 805.59 539.82 803.66 543.87 803.35 544.11 806.83 546.98 803.47 552 804.91 552.07 803.08 555.29 803.45 557.73 805.12 559.59 802.65 562.4 803.21 563.05 800.87 565.06 800.27 566.22 801.3 572.05 799.62 574.9 798.78 577.72 793.47 575.9 790.15 577.36 783.89 580.8 778.28 582.89 778.79 587.27 778.45 588.5 777.38 587.31 775.44 587.99 772.25 589.77 769.14 591.84 768.42 594.51 772.95 595.65 774.88 601.87 775.68 603.12 776.83 604.61 778.18 607.91 780.06 611.34 781.25 617.83 783.26 620.79 784.76 625.59 789.65 617.14 799.99 612.87 804.34 603.84 815.09 597.35 821.16 585.54 832.32 581.85 835.56 580.37 835.16 575.89 833.66 572.28 836.7 569.29 842.78 566.34 844.13 561.92 839 557.73 841.59 549.5 834.18 541.54 833.88 539.8 835.34 530.72 832.74 527.06 830.31 526 830.95 524.23 830.43 506.95 831.05 503.02 832.72 499.42 832.19 497.6 832.37 493.62 832.15 486.66 831.79 477.24 832.97 467.26 834.52 452.75 841.01 447.83 836.32 439.02 836.6 433.33 836.39 425.38 831.82 419.22 828.59 415.44 832.18 404.45 825.62 405.32 824.7 404.64 821.63 401.05 818.35 396.92 818.24 394.83 819.76 397.99 821.77 395.11 825.81 392.98 830.23 390.28 831.42 386.54 830.41 386.27 824.71 383.34 823.63 381.4 821.1 381.61 818.34 382.99 816.4 385.99 815.89 385.05 810.89 381.14 809.89 378.36 809.97 367.02 804.88 362.11 794.18 357.74 787.18 353.92 781.01 345.84 778.87 340.79 768.88 336.67 758.85 337.13 748.7 337.55 746.08 346.07 743.56 348.3 742.02 349.23 732.57 353.09 724.25 353.34 717.9 361.28 718.08 368.33 717.08 381.86 713.84 389.89 711.95 395.01 712.35 403.1 716.55 403.8 722.99 414.54 720.19 416.36 718.11 421.7 714.39 429.12 709.72 442.66 709.19 456.65 708.91 457.59 699.32 459.72 689.86 480.11 685.61 488.69 686.33 499.3 678.83 501.58 680.21 506.72 683.26 509.81 684.73 514.27 686.62 516.64 689.01 519.09 690.37 521.65 692.02 523.33 692.61 525.14 695.21 527.8 698.74 529.82 702.09 Z"/>
<path d="M 545.99 721.23 542.99 720.85 540.37 719.69 539.47 718.51 537.69 718.16 537.12 717.99 536.55 717.3 535.83 714.86 534.28 712.46 532.77 709.42 531.66 706.87 531.35 705.03 529.82 702.09 527.8 698.74 525.14 695.21 523.33 692.61 521.65 692.02 519.09 690.37 516.64 689.01 514.27 686.62 509.81 684.73 506.72 683.26 501.58 680.21 499.3 678.83 507.95 674.17 512.13 678.74 517.19 677.49 525.2 671.71 538.87 661.78 538.87 661.78 540.42 663.5 549.12 661.43 553.56 666.34 559.99 672.7 560.85 681.69 563.83 683.53 566.17 689.49 566.47 694.78 565.14 700.2 561.2 701.47 559.04 704.41 559.86 705.18 563.14 706.71 567.33 709.05 572.4 711.92 572.31 712.3 572.1 716.01 572.36 718.34 572.46 719.24 569.86 719.01 568.6 719.54 567.55 719.85 566.26 720.63 565.75 721.38 564.06 721.53 561.15 722.79 558.07 722.32 555.78 722.78 553.75 722.89 552.47 723.41 550.33 723.08 547.46 722.07 545.99 721.23 Z"/>
<path d="M 245.94 631.76 249.53 635.31 255.2 637.83 253.99 646.86 263.73 651.66 268.8 655.45 273.23 655.37 276.66 655.74 285.1 661.35 289.65 663.82 303.39 668.65 311.12 674.73 310.18 686.92 314.08 687.97 321.64 691.66 326.76 694.41 333.28 699.41 335.26 699.78 338.7 697.33 343.11 696.4 348.37 697.55 350.49 700.21 356.07 704.98 361.76 711.89 364.86 712.25 368.33 717.08 361.28 718.08 353.34 717.9 353.09 724.25 349.23 732.57 348.3 742.02 346.07 743.56 337.55 746.08 337.13 748.7 336.67 758.85 340.79 768.88 345.84 778.87 353.92 781.01 353.77 781.59 345.39 782.92 342.98 782.82 339.09 783.91 337.14 783.46 336.86 780.19 334.69 778.81 331.14 779.38 328.64 778.63 326.39 777.55 323.24 774.57 318.3 776.91 315.81 776.79 313.9 778.94 305.6 780.97 296.6 781.16 289.09 778.93 285.93 778.29 282.93 778.36 273.55 776.49 268.4 776.15 265.22 775.77 266.47 770.83 273.21 772.88 279.02 768.38 283.7 766.02 290.27 762.77 293.48 761.08 299.38 751.06 300.9 742.01 297.04 731.02 293.77 725.89 291.99 720.58 291.61 720.63 285.31 721.17 282.4 720.51 278.58 720.13 273.34 717.71 270.41 713.85 262.84 709.27 258.49 710.25 238.3 708.31 233.06 706.51 227.43 708.65 223.75 707.27 220.52 703.1 209.89 703.49 202.51 704.07 198.23 698.95 194.76 691.11 191.86 689.15 188.85 688.72 182.94 683.41 177.46 676.1 177.01 671.04 181.57 666.34 188.54 661.67 194.23 657.43 196.24 656.68 203.27 657.44 208.17 660.21 213.21 652.31 218.87 642.05 218.42 636.99 222.04 632.29 231.24 629.25 236.72 627.85 239.5 627.72 245.94 631.76 Z M 330.52 710.44 324.84 712.85 322.6 716.16 320.01 718.77 320.67 721.85 320.99 727.46 318.82 731.65 317.12 736.18 316.07 740.1 318.78 741.62 319.47 742.58 322.15 738.81 322.38 735.64 321.26 733.86 322.62 731.31 324.33 727.24 327.1 727 331.37 728.66 332.96 729.7 334 730.14 336.83 728.19 343.39 721.61 344.26 719.74 344.58 717.15 338.99 713.53 335.2 710.32 334.36 708.78 332.46 707.53 330.52 710.44 Z"/>
<path d="M 398.67 589.23 400.69 590.47 403.05 591.74 406.35 592.58 407.83 592.97 410.94 596.12 413.23 598.99 415.66 599.36 421.22 595.09 425.94 594.59 429.48 594.83 434.01 599.81 432.89 601.21 426.64 607.02 424.45 610.66 421.43 617.19 424.57 620.72 427.56 622.93 429.46 625.75 430.38 629.22 431.2 630.6 433.62 633.47 438.48 635.38 439.29 640.27 440.45 646.2 441.51 650.21 449.33 652.74 446.57 663.4 450.85 663.93 454.64 666.97 457.78 668.76 462.07 663.12 466.27 663.26 469.84 661.83 473.75 664.23 476.02 667.29 479.35 668.65 486.23 672.41 491.96 670.83 496.3 676.97 499.3 678.83 488.69 686.33 480.11 685.61 459.72 689.86 457.59 699.32 456.65 708.91 442.66 709.19 429.12 709.72 421.7 714.39 416.36 718.11 414.54 720.19 403.8 722.99 403.1 716.55 395.01 712.35 389.89 711.95 381.86 713.84 368.33 717.08 364.86 712.25 361.76 711.89 356.07 704.98 350.49 700.21 348.37 697.55 343.11 696.4 338.7 697.33 335.26 699.78 333.28 699.41 326.76 694.41 321.64 691.66 314.08 687.97 310.18 686.92 311.12 674.73 311.28 665.19 310.5 658.38 311.47 657.36 311.26 650.27 314.33 641.19 318.83 632.25 323.98 624.05 322.15 615.42 316.7 606.05 316.26 601.96 317.07 598.48 318.66 597.72 321.15 590.84 322.86 589.67 325.52 588.75 329.7 588.57 329.97 588.11 335.38 588.15 338.15 589.89 337.96 591.23 343.48 600.38 348.69 596.99 351.93 599.27 352.53 593.73 355.58 591.95 360.61 590.8 374.47 596.86 381.66 594.57 387.53 596.01 387 591.98 388.44 591.42 391.32 592.49 396.97 591.95 398.67 589.23 Z"/>
<path d="M 538.87 661.78 525.2 671.71 517.19 677.49 512.13 678.74 507.95 674.17 499.3 678.83 496.3 676.97 491.96 670.83 486.23 672.41 479.35 668.65 476.02 667.29 473.75 664.23 469.84 661.83 466.27 663.26 462.07 663.12 457.78 668.76 454.64 666.97 450.85 663.93 446.57 663.4 449.33 652.74 441.51 650.21 440.45 646.2 439.29 640.27 438.48 635.38 433.62 633.47 431.2 630.6 430.38 629.22 429.46 625.75 427.56 622.93 424.57 620.72 421.43 617.19 424.45 610.66 426.64 607.02 432.89 601.21 434.01 599.81 429.48 594.83 425.94 594.59 421.22 595.09 415.66 599.36 413.23 598.99 410.94 596.12 407.83 592.97 406.35 592.58 403.05 591.74 400.69 590.47 398.67 589.23 399.93 587.03 400.93 584.85 400.26 580.35 398.21 576.5 405.21 570.8 405.11 563.16 401.88 558.52 398.21 555.46 398.44 553.33 397.43 549.32 397.18 547.46 393.32 542.75 392.65 540.02 391.63 539.39 388.78 536.9 387.97 534.59 390.49 532.76 394.31 528.42 398.81 526.77 408.04 528.25 411.31 521.74 411.24 520.5 406.68 515.16 401.58 515.66 402.23 506.86 397.8 503.69 404.59 495.52 413 494.61 423.77 497.57 421.33 506.55 424.6 509.59 432.75 512.01 433.79 511.07 436.52 503.99 439.74 498.87 441.24 499.06 442.58 504.67 442.27 506.81 440.91 509.26 437.73 514.28 433.16 520.73 433.53 525.74 436.93 530.07 438.82 530.56 441.08 530.98 444.83 531.13 446.23 532.44 446.46 535.5 448.42 538.07 451.62 546.08 453.26 552.29 455.45 556.28 456.11 563.48 459.21 565.56 460.4 562.06 464.14 555.04 467.15 557.66 468.71 571.8 473.77 569.54 482.17 577.61 486.34 581.71 489.5 584.09 487.64 591.42 493.68 596.99 495.52 602.68 498.07 610.49 504.12 623.11 513.77 622.8 517.52 633.48 526.74 638.67 526.51 641.66 531.93 646.17 533.73 646.68 537.01 648.8 537.79 650.91 538.87 661.78 Z"/>
<path d="M 147.88 330.8 154.6 331.78 159.12 331.38 161.74 329.91 163.45 327.67 167.65 328.12 170.44 326.09 174.77 325.17 177.37 324.87 181.91 332.05 187.21 327.32 196.67 327.17 195.32 336.33 194.19 340.46 188.69 346.15 189.44 353.85 194.4 355.37 196.99 357.89 197.1 358 197.13 358.05 199.95 362.47 203.37 365.63 211.04 373.01 211.71 373.66 211.07 374.34 207.62 378.05 207.57 378.32 206.86 382.55 209.38 384.75 212.24 389 212.96 395.88 215.55 395.63 215.56 395.63 215.61 395.63 216.81 396.91 218.78 399.2 218.31 400.59 217.85 401.93 218.41 403.44 216.98 404.66 214.53 405.26 212.84 406.2 213.93 408.63 215.06 410.13 215.2 412.3 215.41 414.51 215.42 414.66 215.36 417.5 213.25 421.23 213.35 422.76 213.37 423 212.85 424.16 212.87 424.37 213.03 426.37 212.13 428.38 211.05 430.15 210.87 428.36 210.16 427.15 210.42 424.62 210.61 424.39 212.66 420.27 213.44 418.77 213.47 418.63 214 416.33 213.9 416.01 213.01 413.17 212.86 409.86 210.97 405.97 207.96 405.48 205.87 404.26 202.46 404.02 202.42 404.02 199.69 404.01 193.81 400.77 190.79 399.48 194.64 393.68 197.16 394.49 194.46 397.66 194.9 399.59 198.49 398.68 199.06 397.22 199.62 395.48 201.3 394.61 200.88 392.45 200.45 392.29 197.76 391.33 197.04 389.15 199.02 386.57 199.98 383.44 198.06 381.53 196.35 382.5 194.69 383.94 193.15 384.48 189.28 383.62 185.65 382.98 184.37 378.8 184.34 376.77 183.1 375.79 182.62 374.13 180.64 373.09 179.12 374.19 177.44 372.79 179.52 369.96 179.5 369.88 178.84 367.74 177.1 368.27 176.36 369.69 174.91 370.69 172.48 374.53 169.83 377.73 169.71 377.87 168.61 378.54 170.17 379.21 170.8 379.49 170.8 381.29 171.21 383.71 171.07 385.52 171.82 387.3 172.12 389.65 172.29 391.02 172.63 393.53 170.79 394.57 170.41 397.68 168.46 398.23 167.97 393.8 167.94 393.75 165.56 393.39 161.25 394.32 158.18 392.1 155.92 393.46 153.92 394.66 151.21 394.05 149.39 395 149.27 395.04 147.88 395.5 147.84 395.35 147.26 393.22 145.3 391.69 145.23 391.63 140.26 395.39 138.49 395.78 135.5 397.8 132.38 396.78 130.45 396.11 126.49 395.69 123.97 394.43 120.54 391.94 120.51 391.92 119.16 391.45 119.07 389.53 118.75 385.2 117.39 381.39 116.68 375.61 116.75 372 117.24 370.61 117.24 370.59 117.25 370.58 117.36 370.27 117.64 366.29 116.46 363.15 118.14 359.57 120.43 355.24 120.46 355.18 120.77 353.49 121.72 351.34 121.23 348.04 120.83 344.73 120.41 340.74 118.92 337.45 123.43 332.9 126.26 331.26 134.14 322.75 132.48 317.75 137.85 312.8 146.53 314.95 149.41 316.83 146.69 318.71 147.88 330.8 Z"/>
<path d="M 234.87 456.28 234.08 453.06 233.33 450.26 235.31 448.82 235.35 446.97 233.75 444.73 232.5 442.84 229.08 441.46 226.82 440.76 224.14 439.62 223.88 437.74 225.61 436.5 227.12 433.95 228.54 432.6 229.9 429.66 230.39 427.88 229.72 424.56 228.89 421.72 229.38 418.77 228.73 416.05 228.93 413.45 229.2 409.71 228.2 408.49 223.33 408.6 223.33 408.6 221.64 396.54 223.96 394.61 226 395.04 228.34 403.61 230.76 404.72 234.35 403.45 236.94 403.65 241.43 409 241.81 413.86 242.46 416.72 250.16 419.67 258.66 423.21 260.21 421.46 261.16 419.46 263.55 417.89 267.16 420.93 269.53 422.57 267.69 430.92 269.31 436.05 271.17 440.19 271.19 443.45 270.69 449.86 270.06 452.81 264.76 454.1 255.96 456.06 252.95 461.4 250.38 465.61 248.09 467.85 243.11 468.58 235.66 458.39 234.87 456.28 Z"/>
<path d="M 38.78 152.22 49.49 147.17 55.19 155.55 59.32 157.83 61.3 162.37 64.83 162.75 67.46 162.36 70.02 161.98 70.03 161.98 80.23 162.42 88.43 167.71 92.6 178.21 93.85 190.83 95.21 193.37 95.22 195.03 95.18 197.25 91.07 195.92 87.87 194.15 85.27 192.08 82.85 192.74 81.08 194.6 75.82 191.87 74.35 191.89 73.77 192.82 70.46 193.8 66.72 190.76 64.87 193.14 64.54 194.71 64.53 194.72 62.37 198 62.34 198.05 61.95 200.18 58.49 200.13 55.53 198.92 55.48 200.74 56.05 202.28 53.94 203.86 53 201.65 52.05 199.82 50.42 201.49 48.67 202.26 44.46 202.45 39.85 207.23 39.82 212.23 41.27 214.81 41.84 216.66 40.96 220.26 38.52 221.21 33.76 220.67 31.49 222.86 29.87 226.49 26.25 230.75 23.7 232.14 20.65 236.27 17.55 234.19 15.11 228.92 13.61 227.62 10.46 231.35 8.97 235.16 4.27 232.51 3.63 229.64 4.88 226.65 5.1 223.47 7.52 219.1 7.84 213.98 6.87 210.9 4.58 207.29 4.21 202.65 1 194.06 2.66 192.34 5.3 189.07 8.71 188.32 8.78 188.3 10.34 184.15 8.07 180.68 5.86 177.29 7.94 175.39 11.07 169.02 13.02 163.32 12.26 156.97 13.23 154.06 15.39 148.57 18.63 144.89 27.44 144.34 32.94 142.49 35.05 143.74 35.45 148.02 38.78 152.22 Z"/>
<path d="M 140.49 76.08 146.48 75.97 148.79 74.23 150.78 74.75 153.81 72.33 155.53 70.46 159.11 65.46 160.79 64.11 162.57 63.37 166.94 63.88 166.94 63.88 169.07 66.09 169.72 69.68 172.19 73.58 172.45 75.91 171.37 77.64 175.63 85.59 170.11 89 168.54 96.21 169.28 99.92 172.57 102.97 169.79 104.97 165.74 107.39 165.25 112.49 164.02 115.07 167.27 117.15 166.07 121.56 167.34 123.51 166.49 126.87 167.26 129.4 170.9 132.91 173.09 134.79 170.46 138.64 171.28 141.62 168.78 145.22 162.01 146.71 154.52 140.52 151.54 139.84 145.54 135.78 138.94 133.13 135.56 137.49 132.81 137.42 132.25 136.67 131.77 136.01 130.9 134.83 130.28 133.5 130.26 133.45 129.64 132.12 124.57 127.92 122.59 125.27 120.45 122.19 120.45 122.19 119.31 119.58 118.84 118.75 106.11 118.12 104.66 115.91 99.19 114.16 92.6 111.12 91.16 109.41 88.01 101.68 87.24 95.63 83.97 90.63 81.35 90.09 78.12 87.56 76.62 84.46 76.04 82.68 80.39 77.75 85.22 72.72 86.19 70.15 89.62 67.49 91.85 65.38 92.68 62.93 94.2 59.83 97.18 57.79 98.91 58.41 102.3 59.5 104.62 58.89 106.41 57.72 108.8 57.2 110.23 59.75 110.1 62.26 111.97 64.45 114.11 63.36 115.58 61.94 116.34 56.95 116.38 56.95 120.21 56.93 122.07 55.56 128.5 59.49 128.72 63.24 131.18 64.5 133.92 65.32 136.16 67 136.88 68.59 138.12 70.98 140.49 76.08 Z"/>
<path d="M 116.34 56.95 116.2 57.88 115.8 60.49 115.58 61.94 114.11 63.36 111.97 64.45 111.36 63.74 110.71 62.97 110.1 62.26 110.15 61.33 110.18 60.68 110.23 59.75 109.77 58.93 109.26 58.02 108.8 57.2 109.65 56.82 109.8 56.74 111.14 56.14 111.33 54.68 111.42 54.08 111.45 53.82 111.61 52.63 112 51.6 112.13 51.26 112.52 50.22 113.52 49.15 114.77 47.8 115.77 46.73 117.16 47.22 117.81 47.46 118.27 47.62 118.29 47.63 119.67 48.12 119.99 48.66 120.41 49.38 120.73 49.93 119.74 51.01 119.5 51.28 118.51 52.36 118.27 53.2 118.11 53.77 117.89 54.58 117.49 55.99 116.34 56.95 Z"/>
<path d="M 225.75 51.88 226.23 51.07 227.27 49.32 227.74 48.51 227.76 47.58 227.86 42.62 227.88 41.68 228.6 42.29 232.18 45.32 232.9 45.92 247.2 56.75 247.9 56.38 248.03 56.31 248.73 55.94 249.63 56.18 251.37 56.65 252.28 56.89 253.2 57.02 262.49 58.4 263.42 58.54 264.35 58.48 266.37 58.36 267.3 58.3 268.27 58.99 268.95 59.64 270.6 61.2 271.28 61.84 272.16 62.17 272.79 62.42 273.67 62.75 274.44 62.49 274.56 62.45 275.32 62.2 276.16 61.78 280.49 59.59 281.33 59.17 282.19 59.55 284.04 60.35 284.9 60.72 285.66 61.26 288.79 63.49 289.55 64.04 290.23 64.68 292.13 66.51 292.81 67.16 293.29 67.97 293.84 68.89 294.32 69.7 294.92 70.41 301.54 78.3 302.14 79.02 302.97 78.59 307.82 76.04 308.65 75.6 309.37 76.21 310.53 77.19 311.25 77.79 312.18 77.9 322.24 79.09 323.17 79.2 323.88 79.81 324.65 80.46 325.37 81.07 325 81.93 323.72 84.92 323.36 85.78 322.7 86.05 322.49 86.13 321.83 86.41 321.41 87.24 320.69 88.66 320.33 89.37 320.27 89.49 320.67 90.24 320.66 90.34 320.58 91.17 320.07 96.96 319.99 97.9 319.91 98.83 319.75 100.99 319.68 101.93 318.89 102.42 318.82 102.47 318.02 102.97 317.15 102.94 317.09 102.94 316.22 102.9 315.43 103.4 308.35 107.87 307.56 108.37 307.43 109.3 307.17 111.14 307.05 112.07 306.39 112.73 305.43 113.69 304.76 114.36 304.09 114.04 303.92 113.96 303.24 113.64 302.38 114.02 301.96 114.2 301.1 114.57 301.05 115.51 300.96 117.26 300.92 118.2 300.24 118.34 296.52 119.15 295.6 119.34 294.7 119.61 290.56 120.83 289.66 121.1 289.82 122.02 290.28 124.65 290.44 125.58 289.51 125.73 289.49 125.73 288.57 125.89 288.01 125.97 287.64 126.03 287.09 126.11 286.36 125.53 285.9 125.16 285.17 124.57 284.68 123.78 282.45 120.14 281.96 119.34 281.8 118.42 281.55 116.93 281.39 116.01 280.45 115.98 277.54 115.87 276.6 115.84 276.07 115.07 274.95 113.46 274.42 112.69 273.94 111.89 271.79 108.23 271.32 107.42 270.38 107.37 265.79 107.12 264.86 107.07 264.19 106.42 263.58 105.82 262.91 105.16 262.48 104.33 258.47 96.61 258.04 95.78 258.28 94.87 258.54 93.85 258.78 92.94 259.46 92.3 261.39 90.47 262.07 89.82 262.25 88.7 262.75 87.91 264.06 85.86 264.56 85.07 265.5 85.03 269.27 84.89 270.2 84.85 269.95 83.95 268.21 77.81 267.96 76.91 267.12 76.5 258.89 72.46 258.05 72.05 257.59 71.23 257.02 70.19 256.56 69.37 255.64 69.21 252.84 68.71 251.92 68.55 251.07 68.14 249.98 67.61 249.13 67.21 248.21 67.33 247.69 67.4 246.76 67.52 245.92 67.12 245.09 66.73 244.24 66.33 243.59 65.66 240.62 62.58 239.97 61.9 239.18 61.41 238.88 61.22 238.09 60.73 237.73 59.87 236.83 57.69 236.48 56.83 235.59 56.52 235.37 56.44 234.49 56.13 233.97 55.64 233.8 55.49 233.28 55 232.42 54.64 226.61 52.23 225.75 51.88 Z"/>
<path d="M 169.53 28.07 168.82 30.71 167.56 32.85 164.29 33.49 160.52 32.22 158.46 31.31 158.64 26.94 159.48 24.68 160.96 21.76 166.11 21.21 167.8 22.62 166.95 25 166.89 30.56 169.53 28.07 Z"/>
<path d="M 156.58 22.62 154.45 24.91 146.11 28.65 142.84 30.07 139.57 31.49 138.27 33.22 135.83 33.14 134.28 32.9 133.98 30.31 133.99 28.21 131.52 27.72 130.54 26.22 128.92 25.6 127.41 24.25 126.32 23.04 127.42 19.96 127.03 17.18 128.74 15.75 130.8 14.71 133.16 16.08 136.37 16.99 138.03 16.18 139.41 18.88 139.46 20.53 141.41 19.92 143.97 17.94 146.12 19.6 147.81 17.85 151.21 20.9 153.87 21.95 156.23 21.24 156.58 22.62 Z"/>
<path d="M 159.48 24.68 158.64 26.94 158.46 31.31 160.52 32.22 164.29 33.49 167.56 32.85 168.82 30.71 169.53 28.07 172.22 29.08 174.32 29.66 178.01 27.86 178.81 29.56 178.93 32.07 180.63 34.39 182.52 37.46 184.86 39.65 187.14 38.84 189.43 37.58 192.35 39.05 192.51 39.11 194.53 39.09 194.23 40.63 195.88 42.43 194.22 45.94 192.98 49.95 197.69 51.07 202.06 50.73 203.68 55.51 205.17 57.84 207.46 58.7 206.62 61.02 205.79 62.48 205.98 67.43 212.26 67.42 213.79 67.49 215.06 67.31 218.82 68.31 222.6 75.82 223.11 77.73 223.1 79.87 221.51 82.51 220.03 82.95 217.92 85.55 214.03 83.87 211.13 81.75 208.36 81.03 206.75 79.74 203.68 79.25 202.17 82.82 203.42 86.33 203.68 87.97 202.4 89.07 201.61 91.58 199.68 92.96 200.44 96.48 200.7 98.28 199.34 99.98 195.45 100.28 191.61 98.35 190.54 96.41 190.14 93.89 184.99 89.54 182.94 88.8 180.67 88.23 178.14 87.59 175.63 85.59 171.37 77.64 172.45 75.91 172.19 73.58 169.72 69.68 169.07 66.09 166.94 63.88 166.94 63.88 162.57 63.37 160.79 64.11 159.11 65.46 155.53 70.46 153.81 72.33 150.78 74.75 148.79 74.23 146.48 75.97 140.49 76.08 138.12 70.98 136.88 68.59 136.16 67 133.92 65.32 131.18 64.5 128.72 63.24 128.5 59.49 122.07 55.56 123.38 53.36 124.12 51.54 125.84 49.27 126.95 45.77 129.1 44.51 130.24 47.06 133.2 44.2 133.1 38.98 133.77 34.39 134.28 32.9 135.83 33.14 138.27 33.22 139.57 31.49 142.84 30.07 146.11 28.65 154.45 24.91 156.58 22.62 159.48 24.68 Z"/>
<path d="M 227.88 41.68 227.86 42.62 227.76 47.58 227.74 48.51 227.27 49.32 226.23 51.07 225.75 51.88 221.64 53.57 217.44 54.07 211.83 53.33 207.67 53.79 203.68 55.51 202.06 50.73 197.69 51.07 192.98 49.95 194.22 45.94 195.88 42.43 194.23 40.63 194.53 39.09 192.51 39.11 192.35 39.05 189.43 37.58 187.14 38.84 184.86 39.65 182.52 37.46 180.63 34.39 178.93 32.07 178.81 29.56 178.01 27.86 174.32 29.66 172.22 29.08 172.53 25.3 169.22 22.94 169.96 20.22 170.12 15.77 171.73 12.75 171.8 12.62 173.28 8.75 174.4 5.86 176.64 3.91 178.48 2.72 181.19 3.6 184.39 1 187.29 1.89 190.65 3.13 196.34 6.02 200.93 8.32 202.5 10.9 205.11 12.77 208.43 13.02 211.47 14.53 214.48 16.43 220.05 20.75 223.8 27.64 221.85 33.58 222.35 36.96 222.87 39.91 227.88 41.68 Z"/>
<path d="M 778.65 905.21 778.65 905.21 774.74 909.48 771.13 914.81 769.1 918.69 765.66 924.47 763.93 931.39 759.04 932.68 752.04 937.6 749.03 943.98 743.71 946.04 738.39 949.53 731.51 956.59 725.72 959.91 723.87 956.43 719.56 955.1 717.2 957.04 712.94 958.81 704.7 958 696.72 963.55 686.69 969.85 683.19 968.69 679.22 967.07 675.01 966.25 667.3 969.08 655.58 968.54 650.51 968.64 646.73 958.92 647.96 956.81 653.29 951.69 653.31 951.67 657.66 952.68 661.02 950.55 665.8 948.2 669.27 949.63 671.34 945.82 674.45 935.39 676.9 933.97 679.34 934.89 683.62 937.34 685.05 938.02 693.49 940.41 695.87 939.58 703.94 937.75 707.39 932.88 710.89 932.42 714.42 933.31 716.78 931.06 719.52 925.73 721.95 925.53 725.39 927.86 728.21 930.85 730.99 925.81 733.19 921.4 731.48 912.19 732.16 908.92 733.93 903.26 727.87 901.14 726.37 899.22 721.22 897.5 716.86 897.83 713.31 896.24 708.71 895.15 704.85 895.04 702.95 894.99 700.21 893.69 702.49 890.55 703.14 888.53 705.39 884.19 710.23 875.59 712.54 877.42 715.04 879.02 717.67 880.32 720.48 881.23 724.44 882.19 731.76 885.71 740.1 888.47 751.41 891.54 758.49 893.97 765.85 897.58 773.37 901.98 778.65 905.21 Z"/>
<path d="M 725.72 959.91 720.05 964.25 716.53 965.03 711.37 967.42 707.01 970.74 703.44 977.23 703.57 986.1 700.33 988.66 690.74 988.56 685.45 990.91 680.32 993.95 675.84 1002.86 673.83 1004.99 663.81 1009.19 660.9 1014.54 656.64 1016.57 651.45 1014.87 649.26 1013.77 648.32 1008.92 644.46 1002.56 639.96 992.34 637.07 991.71 633.18 990.53 635.37 982.75 637.28 977.45 639.55 972.61 641.15 970.4 640.98 965.6 641.87 961.69 643.81 958.17 643.97 953.05 641.68 951.16 645.76 949.09 651.44 951.44 653.27 951.66 653.31 951.67 653.29 951.69 647.96 956.81 646.73 958.92 650.51 968.64 655.58 968.54 667.3 969.08 675.01 966.25 679.22 967.07 683.19 968.69 686.69 969.85 696.72 963.55 704.7 958 712.94 958.81 717.2 957.04 719.56 955.1 723.87 956.43 725.72 959.91 Z"/>
</g>
</svg>